<svg xmlns="http://www.w3.org/2000/svg" viewBox="0 0 128 128" width="128" height="128" role="img" aria-label="craftgo">
  <title>craftgo</title>
  <defs>
    <linearGradient id="bg" x1="0" y1="0" x2="0" y2="1">
      <stop offset="0" stop-color="#5DC9E2"/>
      <stop offset="1" stop-color="#00ADD8"/>
    </linearGradient>
  </defs>
  <rect width="128" height="128" rx="24" fill="url(#bg)"/>
  <g fill="none" stroke="#FFFFFF" stroke-width="10" stroke-linecap="round" stroke-linejoin="round">
    <path d="M 48 32 Q 34 32 34 46 L 34 58 Q 34 64 28 64 Q 34 64 34 70 L 34 82 Q 34 96 48 96"/>
    <path d="M 80 32 Q 94 32 94 46 L 94 58 Q 94 64 100 64 Q 94 64 94 70 L 94 82 Q 94 96 80 96"/>
  </g>
  <rect x="56" y="56" width="16" height="16" rx="2" fill="#FFFFFF" transform="rotate(45 64 64)"/>
</svg>
